<svg width="96" height="48" viewBox="0 0 96 48" fill="none" xmlns="http://www.w3.org/2000/svg">
<path d="M29.4847 28.9053V19.0107C29.4847 13.5461 25.0548 9.11621 19.5902 9.11621V9.11621C14.1256 9.11621 9.69568 13.5461 9.69568 19.0107V28.9053" stroke="#EE2B5B" stroke-width="3.90396"/>
<path d="M29.485 25.6067L29.485 29.4546C29.485 31.5797 31.2078 33.3025 33.3329 33.3025V33.3025C35.458 33.3025 37.1808 31.5797 37.1808 29.4546L37.1808 25.6068" stroke="#EE2B5B" stroke-width="3.90396"/>
<path d="M23.6494 38.8841L23.6494 33.0207C23.6494 30.7788 21.832 28.9614 19.5901 28.9614V28.9614C17.3482 28.9614 15.5308 30.7788 15.5308 33.0207L15.5308 38.8841" stroke="#EE2B5B" stroke-width="3.90396"/>
<path d="M1.99994 25.6067L1.99994 29.4546C1.99994 31.5797 3.72269 33.3025 5.84781 33.3025V33.3025C7.97293 33.3025 9.69568 31.5797 9.69568 29.4546L9.69568 25.6068" stroke="#EE2B5B" stroke-width="3.90396"/>
<path fill-rule="evenodd" clip-rule="evenodd" d="M19.5903 23.4076C21.4118 23.4076 22.8884 21.931 22.8884 20.1095C22.8884 18.2879 21.4118 16.8113 19.5903 16.8113C17.7687 16.8113 16.2921 18.2879 16.2921 20.1095C16.2921 20.4474 16.3429 20.7735 16.4374 21.0806C16.6959 20.5079 17.272 20.1094 17.9411 20.1094C18.8519 20.1094 19.5902 20.8477 19.5902 21.7585C19.5902 22.4276 19.1916 23.0037 18.6189 23.2623C18.926 23.3568 19.2522 23.4076 19.5903 23.4076Z" fill="#EE2B5B"/>
<path d="M44.997 39V11.2762H49.6369V39H44.997ZM55.3654 39L55.404 11.2762H60.1016V28.2185L67.7064 18.2072H73.5014L65.4346 28.6036L74.1945 39H68.0529L60.1016 28.9886V39H55.3654ZM81.9374 39.5776C80.4357 39.5776 79.165 39.2952 78.1253 38.7305C77.0857 38.1529 76.2963 37.3892 75.7573 36.4394C75.231 35.4896 74.9679 34.4435 74.9679 33.3012C74.9679 32.3001 75.1348 31.4016 75.4685 30.6059C75.8022 29.7973 76.3156 29.1042 77.0087 28.5266C77.7018 27.9362 78.6002 27.4548 79.7041 27.0826C80.5383 26.8131 81.5138 26.5692 82.6305 26.351C83.7599 26.1328 84.9793 25.9339 86.2885 25.7542C87.6105 25.5617 88.9902 25.3563 90.4278 25.1381L88.772 26.0815C88.7849 24.644 88.464 23.5851 87.8094 22.9048C87.1548 22.2246 86.051 21.8844 84.498 21.8844C83.561 21.8844 82.6561 22.1026 81.7833 22.539C80.9106 22.9754 80.3009 23.7263 79.9543 24.7916L75.7188 23.4631C76.2322 21.7047 77.2076 20.2929 78.6452 19.2276C80.0955 18.1623 82.0465 17.6296 84.498 17.6296C86.3462 17.6296 87.9698 17.9312 89.3689 18.5345C90.7807 19.1377 91.8268 20.126 92.507 21.4994C92.8793 22.231 93.1039 22.9818 93.1809 23.7519C93.2579 24.5092 93.2964 25.3371 93.2964 26.2355V39H89.2341V34.4949L89.9079 35.2265C88.971 36.7282 87.8736 37.832 86.6157 38.5379C85.3707 39.231 83.8113 39.5776 81.9374 39.5776ZM82.8615 35.8811C83.914 35.8811 84.8124 35.695 85.5569 35.3228C86.3013 34.9505 86.8917 34.4949 87.3281 33.9558C87.7773 33.4167 88.0789 32.9098 88.233 32.4349C88.4768 31.8444 88.6116 31.1706 88.6373 30.4133C88.6758 29.6432 88.695 29.0207 88.695 28.5458L90.1197 28.9694C88.7207 29.1876 87.5206 29.3801 86.5195 29.547C85.5183 29.7138 84.6584 29.8743 83.9396 30.0283C83.2209 30.1695 82.5855 30.3299 82.0336 30.5096C81.4946 30.7021 81.0389 30.9267 80.6667 31.1834C80.2945 31.4401 80.0057 31.7353 79.8003 32.0691C79.6078 32.4028 79.5115 32.7942 79.5115 33.2435C79.5115 33.7569 79.6399 34.2125 79.8966 34.6104C80.1533 34.9955 80.5255 35.3035 81.0132 35.5345C81.5138 35.7656 82.1299 35.8811 82.8615 35.8811Z" fill="#EE2B5B"/>
</svg>
